<svg width="1024" height="1024" viewBox="0 0 1024 1024" fill="none" xmlns="http://www.w3.org/2000/svg">
  <defs>
    <linearGradient id="paper" x1="264" y1="116" x2="760" y2="908" gradientUnits="userSpaceOnUse">
      <stop stop-color="#FBFCFF"/>
      <stop offset="1" stop-color="#DCE4EE"/>
    </linearGradient>
    <linearGradient id="fold" x1="650" y1="108" x2="814" y2="272" gradientUnits="userSpaceOnUse">
      <stop stop-color="#C6D1DF"/>
      <stop offset="1" stop-color="#EEF3F8"/>
    </linearGradient>
    <linearGradient id="slide" x1="314" y1="354" x2="718" y2="736" gradientUnits="userSpaceOnUse">
      <stop stop-color="#121722"/>
      <stop offset="1" stop-color="#070A10"/>
    </linearGradient>
    <linearGradient id="xA" x1="352" y1="382" x2="672" y2="620" gradientUnits="userSpaceOnUse">
      <stop stop-color="#7EF2CD"/>
      <stop offset="1" stop-color="#7D8BFF"/>
    </linearGradient>
    <linearGradient id="xB" x1="668" y1="386" x2="352" y2="620" gradientUnits="userSpaceOnUse">
      <stop stop-color="#FFF0A5"/>
      <stop offset="1" stop-color="#FF8A4D"/>
    </linearGradient>
    <filter id="shadow" x="164" y="74" width="696" height="882" filterUnits="userSpaceOnUse" color-interpolation-filters="sRGB">
      <feDropShadow dx="0" dy="26" stdDeviation="34" flood-color="#000000" flood-opacity="0.30"/>
    </filter>
  </defs>
  <g filter="url(#shadow)">
    <path d="M242 136C242 109.49 263.49 88 290 88H632L800 256V846C800 872.51 778.51 894 752 894H290C263.49 894 242 872.51 242 846V136Z" fill="url(#paper)"/>
    <path d="M632 88V228C632 254.51 653.49 276 680 276H800L632 88Z" fill="url(#fold)"/>
    <rect x="322" y="376" width="380" height="244" rx="34" fill="url(#slide)"/>
    <rect x="352" y="406" width="320" height="184" rx="20" stroke="white" stroke-opacity="0.11" stroke-width="14"/>
    <path d="M400 432L624 564" stroke="url(#xA)" stroke-width="56" stroke-linecap="round"/>
    <path d="M624 432L400 564" stroke="url(#xB)" stroke-width="56" stroke-linecap="round"/>
    <circle cx="512" cy="498" r="32" fill="#F8F4B4"/>
    <rect x="326" y="684" width="244" height="26" rx="13" fill="#8390A3" fill-opacity="0.55"/>
    <rect x="326" y="734" width="312" height="26" rx="13" fill="#8390A3" fill-opacity="0.42"/>
  </g>
</svg>